<?xml version="1.0" encoding="UTF-8"?><svg id="Layer_1" xmlns="http://www.w3.org/2000/svg" width="100mm" height="100mm" xmlns:xlink="http://www.w3.org/1999/xlink" viewBox="0 0 283.46 283.46"><defs><style>.cls-1{letter-spacing:.02em;}.cls-2{fill:url(#linear-gradient);}.cls-2,.cls-3,.cls-4,.cls-5,.cls-6,.cls-7,.cls-8,.cls-9,.cls-10,.cls-11,.cls-12,.cls-13,.cls-14,.cls-15,.cls-16,.cls-17,.cls-18,.cls-19,.cls-20{stroke-width:0px;}.cls-21{fill:#f1ee86;font-family:Impact, Impact;font-size:23.43px;}.cls-3{fill:url(#linear-gradient-2);}.cls-4{fill:#337a3b;}.cls-5{fill:#483220;}.cls-6{fill:#2a6934;}.cls-7{fill:#8a421f;}.cls-8{fill:#6f2813;}.cls-9{fill:#131215;}.cls-10{fill:#d8703f;}.cls-11{fill:#c32129;}.cls-12{fill:#bec8cd;}.cls-13{fill:#b32025;}.cls-14{fill:#8fac40;}.cls-15{fill:#b3e3f5;}.cls-16{fill:#6b8f3c;}.cls-17{fill:#f15b27;}.cls-18{fill:#fcfaf7;}.cls-19{fill:#faf4f1;}.cls-20{fill:#ffdcaa;}</style><linearGradient id="linear-gradient" x1="120.53" y1="106.19" x2="120.86" y2="113.67" gradientUnits="userSpaceOnUse"><stop offset="0" stop-color="#0d0d0c"/><stop offset="1" stop-color="#245d2e"/></linearGradient><linearGradient id="linear-gradient-2" x1="162.79" y1="106.24" x2="162.26" y2="111.44" gradientUnits="userSpaceOnUse"><stop offset="0" stop-color="#0c0c0b"/><stop offset="1" stop-color="#1a3019"/></linearGradient></defs><ellipse class="cls-15" cx="141.78" cy="140.88" rx="130.38" ry="125.14"/><path class="cls-12" d="m116.36,252.12c19.92,3.11,43.78,2.4,62.97-4.12,3.71-1.26,11.66-4.69,14.55-7.09,3.2-.82-3.13,3.54-5.47,4.81-11.47,6.19-31.46,9.06-44.46,9.38-16.06.4-42.14-2.33-56.1-10.53-5.79-4.51,1.93.41,5.35,1.83,5.53,2.29,17.24,5.68,23.16,5.72Z"/><path class="cls-13" d="m158.88,154.96c28.06,10.63,34.14,46.61,41.21,71.74.47,2.18-1.91,4.74-3.49,6.06-2.89,2.41-10.84,5.83-14.55,7.09-19.2,6.52-43.05,7.23-62.97,4.12-7.08-1.1-36.15-7.52-35.85-16.82.05-1.42,6.28-24.46,7.22-27.46,4.51-14.49,13.46-33.63,27.12-41.76,1.88-1.12,4.38-1.98,6.4-2.97,9.25,7.98,25.97,8.45,34.92,0Z"/><path class="cls-19" d="m131.41,155.42c5.69,2.66,13.32,2.77,19.21.69.87-.31,2.74-1.53,4.07-2.06.35-.14.54-.45.81-.69,1.07.58,2.23,1.17,3.38,1.6-8.95,8.45-25.67,7.98-34.92,0,.02-.01-.6-.22-.12-.46.48-.24,3.98-1.67,4.19-1.6.58,1.42,2.06,1.9,3.38,2.52Z"/><path class="cls-17" d="m186.62,113.4c-.4.94-.83,1.9-1.4,2.75-.84,1.26-3.04,3.61-4.42,4.35,0-.02-.46.07-.47-.11-.39-8.69-.87-15.16-5.59-22.88-15.51-25.4-61.19-22.56-71.93,5.72-2.52,6.63-2.19,10.6-2.56,17.16-.02.33-.69.31-.7.34-1.16-.69-3.24-3.23-3.96-4.35-.39-.61-1.69-2.76-1.86-3.2-3.39-8.57-2.06-22.46,1.16-31.01,3.73-9.89,10.3-16.53,19.32-21.85.47.45-3.02,3.26-1.05,3.2.29,0,3.69-1.78,5.35-2.29,3.68-1.12,14.73-2.97,11.76-4.35,3.1-.21,7.3-2.6,9.89-4.35,4.92,3.03,10.87,6.3,16.53,2.97,7.19-4.23,2.62-14.23-9.89-9.61,2.06-8.83-15.11-8.37-12.8,0-4.11-1.46-12.33-2.3-13.27,3.43l-1.16,1.95.47,5.95c-.13.29-4.9,2.69-5.59,3.09-.9-2.48-2.78-5.34-3.26-8.35-2.95-18.61,14.23-28.66,33.41-27.12,19.17,1.54,31.78,17.71,21.3,35.35,18.51,7.98,28.07,35.88,20.72,53.2Z"/><path class="cls-17" d="m120.74,49.33c-.86,5.22,5.08,7.85,9.54,7.55,2.97,1.38-8.08,3.23-11.76,4.35-1.66.51-5.06,2.28-5.35,2.29-1.97.06,1.52-2.76,1.05-3.2.06-.03.18.03.23,0,.69-.4,5.46-2.8,5.59-3.09l-.47-5.95,1.16-1.95Z"/><path class="cls-17" d="m133.24,45.11c2.23.8,5.53,3.03,7.43,4.59,1.48-1.28,5.89-4.02,7.43-4.59,14.51-5.45,19.82,6.35,11.48,11.35-6.56,3.93-13.47.07-19.17-3.51-3.01,2.06-7.88,4.89-11.48,5.14-5.18.35-12.07-2.75-11.07-8.92,1.09-6.77,10.62-5.78,15.39-4.05Z"/><path class="cls-17" d="m148.09,45.11c-1.54.58-5.95,3.31-7.43,4.59-1.9-1.57-5.2-3.79-7.43-4.59-2.67-9.88,17.24-10.43,14.85,0Z"/><path class="cls-7" d="m150.77,151.95c-.25,2.76.26,2.16,2.56,2.75-1.33.52-3.2,1.75-4.07,2.06-5.88,2.08-13.52,1.97-19.21-.69l-.23-4.12c6.85,1.02,14.12,1.48,20.95,0Z"/><path class="cls-20" d="m99.56,118.77c-.35,2.45,1.83,7.86,2.79,10.3-2.2.64-3.82.73-5.82-.46-4.44-2.63-5.08-10.94-.93-14.19.72,1.12,2.8,3.66,3.96,4.35Z"/><path class="cls-20" d="m95.6,114.42c-4.15,3.25-3.51,11.56.93,14.19-2.55.48-6.15-3.51-6.98-5.84-1.78-4.98.23-8.45,4.19-11.56.18.44,1.47,2.59,1.86,3.2Z"/><path class="cls-20" d="m184.06,129.07c-2.16.58-3.39.49-5.59.23,1.3-3.25,2.48-7.27,2.33-10.76,1.38-.74,3.58-3.09,4.42-4.35,4.31,5.48,3.35,9.96-1.16,14.87Z"/><path class="cls-20" d="m184.06,129.07c4.51-4.92,5.47-9.4,1.16-14.87.57-.85,1-1.81,1.4-2.75,8.49,3.85,5.62,15.41-2.56,17.62Z"/><path class="cls-20" d="m181.14,118.54c.15,3.49-1.03,7.5-2.33,10.76-4.74,11.84-15.16,19.94-27.7,22.65-6.83,1.48-14.1,1.02-20.95,0-13.89-4.4-22.07-9.15-27.47-22.88-.96-2.44-3.15-7.85-2.79-10.3,0-.04.68-.01.7-.34.37-6.56.04-10.54,2.56-17.16,10.74-28.28,56.42-31.12,71.93-5.72,4.72,7.72,5.2,14.19,5.59,22.88,0,.19.46.09.47.11Z"/><path class="cls-8" d="m157.75,98.4c5.39-.79,12.93,4.21,12.92,5.15-.04,2.65-4.98-1.96-11.99-2.17-3.01-.09-8.31,1.79-4.42-1.37.42-.34,3.02-1.53,3.49-1.6Z"/><path class="cls-8" d="m120.03,98.4c2.05-.2,5.33.28,6.98,1.6,3.89,3.11-1.4.89-6.98,1.6-5.23.67-8.82,4.19-9.2,2.17-.35-1.88,7.49-5.21,9.2-5.38Z"/><path class="cls-5" d="m150.45,139.7c-.52.42-4.43-2.98-13.32-1.42-3.2.56-7.21,3.26-6.39.54.12-.4,3.66-1.91,4.24-2.08,8.63-2.47,17.8,1.07,15.47,2.96Z"/><path class="cls-10" d="m169.39,132.73c1.21.01-2.03,1.52-2.56,1.6-3.01.48-8.21-.94-5.12-.92.18,0,.05.44.23.46,4.53.5,7.05-1.15,7.45-1.14Z"/><path class="cls-10" d="m113.05,133.19c2.44.65,4.33,1.25,6.87,1.49-2.38.46-4.96.09-6.87-1.49Z"/><path class="cls-5" d="m139.82,129.53c1.27-.6,2.16,1.46.93,1.83-1.19.36-1.77-1.44-.93-1.83Z"/><path class="cls-9" d="m143.01,164.38c0,1.14-2.91.48-5,.65-1.29-1.18-5.55-4.98-6.95-5.21-3.97-.63-1.48,5.71,1.7,6.67.89.27,13.35.45,14.58.33,1.65-.16,3.44-1.52,4.32-2.85,2.47-3.73.79-5.18-3.22-3.5,3.77-2.31,5.86.09,6.27,3.82.04.32.03,3.48,0,3.66-.03.14-1.07,2.41-1.19,2.6-3.19,5.13-7.61,1.97-10.51.49-.17-.09-1.21-1.41-3.65-.98-.85.15-1.09.8-1.44.98-2.11,1.09-3.86,2.5-6.44,2.28-1.82-.16-3.1-1.24-3.9-2.77-.15-.28-.38-1.2-.51-1.63-.18-.6-.33-.62-.34-.65-.02-.09.39-.99-.34-1.71.36-1.71-.06-3.77,1.02-5.29,3.28-4.65,8.13,1.53,10.94,3.58,1.96-.11,2.95.37,4.66-.49Z"/><path class="cls-11" d="m143.01,171.05h-5.09c.35-.18.59-.82,1.44-.98,2.43-.44,3.47.89,3.65.98Z"/><path class="cls-9" d="m143.01,164.38c1.26-.64,3.58-3.13,5.43-3.91,4.01-1.68,5.69-.23,3.22,3.5-.88,1.33-2.68,2.69-4.32,2.85-1.23.12-13.69-.05-14.58-.33-3.18-.96-5.67-7.31-1.7-6.67,1.41.22,5.67,4.03,6.95,5.21,2.09-.17,5,.49,5-.65Z"/><path class="cls-2" d="m130.97,112.63c-1.32-.37-2.82-6.06-4.66-5.53-.35.1-.53.75-.42,1.06.37,1.06,1.46-.7,3.05,2.2-.93,5.91-8.09,6.98-11.11,1.95-.77.25-2.41.15-2.54-.65l-.42,1.3c-.02-1.17.42-2.82,1.61-3.42,1.82-.91,3.2.9,3.65-.41.87-2.54-5.25-2.71-6.78,5.45-1.35-1.27-2.66-.08-1.19-4.47l-2.03-1.46c.19-.31.66.21,1.36.41.32.09.67.46,1.1.33.31-.1,1.66-2.48,5.17-3.74.57-.2,1.82-.58,2.37-.65,7.02-.94,11.03,4.43,11.19,7.24.05.93-.32.33-.34.41Z"/><path class="cls-18" d="m114.87,112.95c.04,2.62,1.76,4.23,4.24,5.04-.23.36-1,.11-1.36,0-2.36-.71-3.5-2.56-4.41-3.42,1.53-8.16,7.65-7.99,6.78-5.45-.45,1.3-1.83-.51-3.65.41-1.19.6-1.63,2.25-1.61,3.42Z"/><path class="cls-14" d="m125.04,118.16c-2.62.57-3.3.7-5.93-.16-2.48-.82-4.2-2.42-4.24-5.04l.42-1.3c.13.8,1.78.9,2.54.65,3.02,5.02,10.18,3.96,11.11-1.95,2.38,4.34-1.86,7.28-2.8,7.32-.1,0-1.27-1.23-1.1.49Z"/><path class="cls-18" d="m130.97,112.63c-1.12,3.66-1.94,4.67-5.93,5.53-.17-1.72,1-.48,1.1-.49.94-.05,5.17-2.98,2.8-7.32-1.59-2.9-2.68-1.14-3.05-2.2-.11-.31.08-.96.42-1.06,1.84-.52,3.34,5.16,4.66,5.53Z"/><path class="cls-3" d="m169.46,113.77c.84-3.46-4.79-7.79-6.36-6.67-1.5,1.07,1.58,1.01,3.31,2.12-.23.6-.17,1.14-.34,1.79-1.62.07-1.41-.81-2.03,1.79-.58-.32-.75.86-2.8.65,0-.75-1.25-1.13-1.61.16-1.11-.18-1.85-1.5-2.88-.81-.5.34.01.03-.34.49-.66-.65-1.66-2.01-1.87-2.85-.15-.64.43-.98-.17-.89,1.18-2.05,2.49-2.51,2.54-2.68.19-.69-1.73.69-2.37,1.46-.47.56-2.28,4.23-2.37,4.8-.96-1.69,1.51-5.7,2.97-6.83,3.23-2.51,8.13-1.77,11.53,0,3.08,1.61,3.42,4.34,6.19,1.87-1.8,3.35-.66,6.07-3.39,5.61Z"/><path class="cls-14" d="m156.41,113.28c2.11,2.07,4.3,2.31,6.95.98,1.47-.74,2.25-1.56,2.71-3.09.4.24,1.77.77,1.87.89.34.47-.32,1.54,0,2.03-.54,1.39-2.33,2.49-3.56,3.25-2.71.85-4.26,1.1-7.12.49.37-2.05-.44-.55-1.1-.65-.43-.06-3.21-2.79-2.8-5.78.12-.89.8-1.49,1.02-1.87.6-.09.02.25.17.89.2.83,1.2,2.2,1.87,2.85Z"/><path class="cls-18" d="m169.46,113.77c-.4,1.64-3.54,3.09-5.09,3.58,1.23-.76,3.02-1.87,3.56-3.25.8-2.06.33-3.69-1.53-4.88-1.72-1.11-4.8-1.04-3.31-2.12,1.57-1.12,7.2,3.22,6.36,6.67Z"/><path class="cls-18" d="m154.37,109.54c-.22.38-.89.98-1.02,1.87-.41,2.98,2.36,5.71,2.8,5.78.67.1,1.47-1.39,1.1.65-2.13-.46-5.51-2.21-5.09-4.72.1-.57,1.91-4.24,2.37-4.8.64-.77,2.57-2.15,2.37-1.46-.05.18-1.36.64-2.54,2.68Z"/><path class="cls-4" d="m164.04,112.79c-.17.6-2.43,1.12-.68,1.46-2.65,1.33-4.85,1.09-6.95-.98.35-.46-.16-.15.34-.49,1.05.77,1.57,1.23,2.97,1.3.28-.49-.09-.46-.08-.49.36-1.29,1.61-.92,1.61-.16,2.05.21,2.22-.97,2.8-.65Z"/><path class="cls-6" d="m166.07,111c-.01.05.02.11,0,.16-.47,1.53-1.24,2.35-2.71,3.09-1.75-.34.5-.87.68-1.46.63-2.6.41-1.72,2.03-1.79Z"/><path class="cls-16" d="m167.94,114.09c-.32-.5.34-1.56,0-2.03-.09-.13-1.46-.66-1.87-.89.02-.05-.01-.11,0-.16.17-.65.11-1.19.34-1.79,1.85,1.19,2.33,2.82,1.53,4.88Z"/><path class="cls-4" d="m159.63,113.6s.36,0,.08.49c-1.4-.08-1.92-.53-2.97-1.3,1.03-.69,1.77.63,2.88.81Z"/><rect class="cls-15" x="70.95" y="179.51" width="149.54" height="32.55"/><text class="cls-21" transform="translate(79.5 205.05) scale(1.04 1)"><tspan class="cls-1" x="0" y="0">L</tspan><tspan x="9.5" y="0">AURA EMMA</tspan></text></svg>